*******************************************************************************
                             Carnies (2010) WEBRip
*******************************************************************************

-------------------------------------------------------------------------------
                              General Information
-------------------------------------------------------------------------------
Type.................: Movie



Video Format.........: AVI
Video Bitrate........: 1491
Resolution...........: 640 x 360
Color................: 8 bit
FPS..................: 24.000
Source...............: WEB 16:9
Original Format......: NTSC
Genre................: Horror Thriller
IMDb Rating..........: 5.4
Movie Information....: http://www.imdb.com/title/tt0799975/

-------------------------------------------------------------------------------
                               Post Information
-------------------------------------------------------------------------------
Posted by............: RadioResearch
Posted on............: 4/17/2013

-------------------------------------------------------------------------------
                                 Release Notes
-------------------------------------------------------------------------------
SEEDBOX SUPPORTED!!

Sawdust in the Blood used to be a Carny compliment...not a description of a 
crime scene. There are a thousand sideshows playing thousands of small towns in 
1936 when the Knuckles Brothers Show rolls into yet another town, ready to 
delight and dazzle the town folk with amazing acts and puzzling oddities. As 
they set up their tents they could not know that within days several of them 
would be dead, ripped savagely apart by a seemingly inhuman force, their souls 
stolen from their limp and bloody bodies. Step up, step up, ladies and 
gentlemen, the show is about to begin... 

The rip is a little bit sticky, but the source could not give more.  Was lucky 
to get this, I guess.

Stars Reggie Bannister of Phantasm fame.  KNown as the "hardest working man in 
horror," Reggie has been in literally a shitload of horror films, and always 
gives a great performance.  Also a veteran of the VietNam conflict, Reggie often 
states that he feels a year had been stolen from him for his service over there.

Enjoy
RadioResearch

General
Complete name                            : G:Carnies (2010) WEBRipCarnies.avi
Format                                   : AVI
Format/Info                              : Audio Video Interleave
File size                                : 869 MiB
Duration                                 : 1h 21mn
Overall bit rate                         : 1 491 Kbps

Video
ID                                       : 0
Format                                   : MPEG-4 Visual
Format profile                           : Simple@L3
Format settings, BVOP                    : No
Format settings, QPel                    : No
Format settings, GMC                     : No warppoints
Format settings, Matrix                  : Default (H.263)
Codec ID                                 : XVID
Codec ID/Hint                            : XviD
Duration                                 : 1h 21mn
Bit rate                                 : 1 351 Kbps
Width                                    : 640 pixels
Height                                   : 360 pixels
Display aspect ratio                     : 16:9
Frame rate                               : 24.000 fps
Color space                              : YUV
Chroma subsampling                       : 4:2:0
Bit depth                                : 8 bits
Scan type                                : Progressive
Compression mode                         : Lossy
Bits/(Pixel*Frame)                       : 0.244
Stream size                              : 788 MiB (91%)
Writing library                          : XviD 1.2.1 (UTC 2008-12-04)

Audio
ID                                       : 1
Format                                   : MPEG Audio
Format version                           : Version 1
Format profile                           : Layer 3
Mode                                     : Joint stereo
Mode extension                           : MS Stereo
Codec ID                                 : 55
Codec ID/Hint                            : MP3
Duration                                 : 1h 21mn
Bit rate mode                            : Constant
Bit rate                                 : 128 Kbps
Channel(s)                               : 2 channels
Sampling rate                            : 44.1 KHz
Compression mode                         : Lossy
Stream size                              : 74.6 MiB (9%)
Alignment                                : Aligned on interleaves
Interleave, duration                     : 26 ms (0.63 video frame)
Writing library                          : LAME3.98.2



-------------------------------------------------------------------------------
Generated with Cool NFO Creator - http://fly.to/coolbeans
-------------------------------------------------------------------------------
